Coordinates
version=1
nRows=26
nColumns=22
inDegrees=yes

Units are S.I. units (second, meters, Newtons, ...)
If the header above contains a line with 'inDegrees', this indicates whether rotational values are in degrees (yes) or radians (no).

endheader
time	pelvis_tilt	pelvis_list	pelvis_rotation	pelvis_tx	pelvis_ty	pelvis_tz	hip_flexion_r	hip_adduction_r	hip_rotation_r	knee_angle_r	ankle_angle_r	subtalar_angle_r	hip_flexion_l	hip_adduction_l	hip_rotation_l	knee_angle_l	ankle_angle_l	subtalar_angle_l	lumbar_extension	lumbar_bending	lumbar_rotation
      5.13000000	    -12.27831680	     -2.22658844	     -4.23473884	      1.14922373	      0.97595027	      0.36370591	     15.38240057	      0.24064473	     -0.36518340	    -45.39452095	      9.43384675	     13.48067826	     30.78395386	     -1.60066464	     -4.74666295	    -22.03272010	      9.78067681	     -1.63734565	      2.65115512	      3.62464885	      5.39256169
      5.14000000	    -12.26868081	     -2.06403478	     -4.24004381	      1.15274283	      0.97608304	      0.36230618	     16.14781962	     -0.07706112	     -0.33479715	    -46.89116994	      8.88844847	     13.39444074	     30.54601685	     -1.33569756	     -4.80060799	    -22.01283645	      9.99893563	     -1.74206562	      2.62549876	      3.37798907	      5.34326626
      5.15000000	    -12.24193120	     -1.89456991	     -4.24758762	      1.15616271	      0.97623971	      0.36095912	     16.89763527	     -0.39036113	     -0.28517717	    -48.34430509	      8.41699201	     13.19282072	     30.27852037	     -1.06301000	     -4.84880127	    -21.95841477	     10.20903686	     -1.83926069	      2.57637274	      3.12371040	      5.26757854
      5.16000000	    -12.21327659	     -1.71779832	     -4.25297286	      1.15947901	      0.97636942	      0.35964204	     17.64500732	     -0.71666723	     -0.26795774	    -49.74008620	      8.08519149	     12.84492936	     30.01275106	     -0.78242436	     -4.89920910	    -21.89700573	     10.39739994	     -1.95948796	      2.52533443	      2.86266465	      5.21216997
      5.17000000	    -12.17008006	     -1.57374191	     -4.24297893	      1.16273245	      0.97650434	      0.35835378	     18.34551599	     -1.01574918	     -0.30634386	    -51.02135848	      7.85458868	     12.23591998	     29.73705573	     -0.52978418	     -4.93836699	    -21.83789217	     10.62023045	     -2.14270748	      2.45859470	      2.63854490	      5.13293155
      5.18000000	    -12.07963166	     -1.39657860	     -4.20441539	      1.16596942	      0.97672709	      0.35703894	     18.96353499	     -1.37065892	     -0.37862864	    -52.17657844	      7.83233724	     11.92132281	     29.37743747	     -0.21858247	     -4.92487033	    -21.70374390	     10.78003900	     -2.22522279	      2.34804667	      2.37470001	      5.01074301
      5.19000000	    -11.98057611	     -1.23129090	     -4.14384414	      1.16916288	      0.97695668	      0.35571792	     19.52803678	     -1.72482860	     -0.50009700	    -53.17591654	      7.98006944	     11.50729799	     29.00407748	      0.09039519	     -4.90312376	    -21.55161277	     10.94678054	     -2.34368305	      2.23396686	      2.12982523	      4.85143722
      5.20000000	    -11.84853666	     -1.08898125	     -4.06628989	      1.17233137	      0.97724510	      0.35440280	     20.01079277	     -2.08476667	     -0.71613767	    -54.00308176	      8.21127813	     10.84052559	     28.59041468	      0.38272891	     -4.87692108	    -21.38741114	     11.11638888	     -2.54113732	      2.08674522	      1.90944587	      4.71346724
      5.21000000	    -11.72263502	     -0.95128788	     -3.95280029	      1.17547177	      0.97753061	      0.35306956	     20.44647203	     -2.45661683	     -0.98424959	    -54.65443920	      8.64387704	     10.28726908	     28.16885267	      0.68767105	     -4.80496797	    -21.18672283	     11.28214847	     -2.67779381	      1.96062959	      1.69993657	      4.49841353
      5.22000000	    -11.62366502	     -0.83050193	     -3.80336649	      1.17855861	      0.97779120	      0.35170621	     20.85891142	     -2.83970518	     -1.33843854	    -55.13045111	      9.23888008	      9.83553608	     27.77401614	      0.98746735	     -4.70590015	    -20.97063518	     11.38800420	     -2.76811475	      1.87479018	      1.51531505	      4.25699723
      5.23000000	    -11.49819579	     -0.73255403	     -3.67332799	      1.18156740	      0.97809442	      0.35042734	     21.20629881	     -3.19947784	     -1.72217324	    -55.44043342	      9.84243503	      9.00797811	     27.35684555	      1.25013011	     -4.62084075	    -20.76722544	     11.54608094	     -2.95222430	      1.75402727	      1.35729328	      4.04247143
      5.24000000	    -11.42048394	     -0.64705920	     -3.52148492	      1.18447892	      0.97833591	      0.34914691	     21.56743094	     -3.56290429	     -2.16590659	    -55.59905538	     10.51229175	      8.31201167	     26.99406381	      1.50373802	     -4.51361155	    -20.55569149	     11.66053915	     -3.08090557	      1.69418471	      1.22065046	      3.81642818
      5.25000000	    -11.36696176	     -0.57655911	     -3.37283213	      1.18728350	      0.97855249	      0.34793076	     21.92421704	     -3.90634103	     -2.63206190	    -55.61688263	     11.20046273	      7.61977380	     26.66421659	      1.73343895	     -4.39904423	    -20.34791306	     11.76051552	     -3.20776759	      1.66283520	      1.10299792	      3.59856591
      5.26000000	    -11.33733084	     -0.51213543	     -3.21152551	      1.18994207	      0.97871982	      0.34672359	     22.28816468	     -4.24826533	     -3.12898432	    -55.52299015	     11.91484993	      7.09804251	     26.39215488	      1.95537354	     -4.27572213	    -20.18532198	     11.82618193	     -3.29757524	      1.64860150	      0.99390263	      3.40621508
      5.27000000	    -11.30432679	     -0.49075783	     -3.10546335	      1.19251791	      0.97891374	      0.34570014	     22.62219275	     -4.48603382	     -3.56024726	    -55.29713678	     12.59368378	      6.26231939	     26.12096589	      2.09784904	     -4.19963621	    -20.03496672	     11.94292484	     -3.47523112	      1.62647021	      0.93553012	      3.27806043
      5.28000000	    -11.29310671	     -0.45311615	     -2.98736909	      1.19500207	      0.97907215	      0.34469652	     22.96886742	     -4.72514742	     -3.97182034	    -54.98999846	     13.28958446	      5.75885488	     25.88401317	      2.25769618	     -4.10663379	    -19.89089978	     12.01937221	     -3.58109979	      1.62946054	      0.85896894	      3.13007798
      5.29000000	    -11.27309924	     -0.42789768	     -2.88724448	      1.19737849	      0.97922141	      0.34378147	     23.30149025	     -4.91918724	     -4.34860328	    -54.61031897	     13.98829735	      5.29961603	     25.67447820	      2.38713799	     -4.04626335	    -19.81043111	     12.11593437	     -3.68968979	      1.61134496	      0.79235588	      3.05059640
      5.30000000	    -11.25571139	     -0.42376953	     -2.83272382	      1.19972731	      0.97941055	      0.34304545	     23.61334828	     -5.01658365	     -4.61483212	    -54.12575245	     14.65689623	      4.73940394	     25.45129470	      2.47045504	     -3.98712179	    -19.70412979	     12.21757889	     -3.82974057	      1.60098933	      0.74584000	      2.99915903
      5.31000000	    -11.23950697	     -0.42592662	     -2.79492037	      1.20197242	      0.97958364	      0.34238511	     23.92763787	     -5.07144657	     -4.82476973	    -53.58870197	     15.32748288	      4.34607694	     25.25633644	      2.53324009	     -3.95593882	    -19.63948411	     12.33778255	     -3.91700304	      1.58147912	      0.70782636	      2.98550218
      5.32000000	    -11.23569715	     -0.44548435	     -2.79601912	      1.20413314	      0.97974770	      0.34187965	     24.25036428	     -5.05096616	     -4.93807336	    -52.98918068	     16.00320663	      4.16397625	     25.08998686	      2.55406239	     -3.94231871	    -19.60253255	     12.47104178	     -3.94651447	      1.57030260	      0.68440250	      3.02475561
      5.33000000	    -11.21056850	     -0.46833841	     -2.79551331	      1.20625691	      0.97995539	      0.34140761	     24.53396832	     -5.01275914	     -5.04283833	    -52.32356019	     16.59710599	      3.66782455	     24.90015611	      2.57387799	     -3.91095159	    -19.55833943	     12.61059149	     -4.03991158	      1.53164451	      0.66930577	      3.03853593
      5.34000000	    -11.21140449	     -0.50003476	     -2.83035020	      1.20827352	      0.98012637	      0.34105888	     24.84580899	     -4.92023403	     -5.05205626	    -51.61422689	     17.20165846	      3.53147457	     24.76072335	      2.56425238	     -3.89245997	    -19.55028224	     12.74208958	     -4.05570705	      1.51471702	      0.66278469	      3.11073114
      5.35000000	    -11.20643443	     -0.54351874	     -2.87618901	      1.21023181	      0.98030947	      0.34077087	     25.13864812	     -4.79973696	     -5.03601379	    -50.85233901	     17.75838872	      3.36513154	     24.63091169	      2.53612327	     -3.87684210	    -19.56746186	     12.89083533	     -4.08170747	      1.48622415	      0.67327543	      3.18051089
      5.36000000	    -11.18579646	     -0.62734425	     -2.93150957	      1.21214838	      0.98052839	      0.34054051	     25.39011561	     -4.62904216	     -5.02372166	    -50.02484437	     18.21918048	      3.07342584	     24.50649007	      2.45663847	     -3.89014676	    -19.62493748	     13.08305191	     -4.14312161	      1.43379374	      0.73620150	      3.24873155
      5.37000000	    -11.17464234	     -0.69005541	     -2.99298799	      1.21400369	      0.98072498	      0.34034295	     25.65055293	     -4.47877130	     -4.98786979	    -49.17575033	     18.67495416	      2.92684751	     24.40036248	      2.40016586	     -3.86610636	    -19.68956820	     13.23211753	     -4.18026008	      1.39205670	      0.77596101	      3.32460433
      5.38000000	    -11.16235505	     -0.75164671	     -3.05910059	      1.21579841	      0.98091638	      0.34018001	     25.90333462	     -4.32839459	     -4.94563014	    -48.29996086	     19.10592002	      2.83356023	     24.30880209	      2.34439285	     -3.82245104	    -19.77772484	     13.36714625	     -4.20696588	      1.34439571	      0.81613701	      3.40343934
